<svg width="56" height="86" viewBox="0 0 56 86" fill="none" xmlns="http://www.w3.org/2000/svg">
<path d="M39.2001 0C41.5276 0 43.4001 1.80398 43.4001 3.88008C43.4001 6.25684 41.5276 7.91133 39.2001 8.0625H37.8001V23.6668C45.2551 27.1437 50.4001 34.5008 50.4001 43V75.25C50.4001 81.1793 45.3776 86 39.2001 86H16.8001C10.6138 86 5.6001 81.1793 5.6001 75.25V43C5.6001 34.5008 10.7398 27.1437 18.2001 23.6668V8.0625H16.8001C14.4813 8.0625 12.6001 6.25852 12.6001 4.03125C12.4426 1.80566 14.4796 0.000839844 16.6426 0.000671875L39.2001 0ZM28.0001 64.5C32.6376 64.5 36.4001 61.8125 36.4001 56.4375C36.4001 51.0625 28.0001 43 28.0001 43C28.0001 43 19.6001 51.0625 19.6001 56.4375C19.6001 60.8887 23.3626 64.5 28.0001 64.5Z" fill="white"/>
</svg>
