<svg width="109" height="109" viewBox="0 0 109 109" fill="none" xmlns="http://www.w3.org/2000/svg">
<path fill-rule="evenodd" clip-rule="evenodd" d="M56.8966 41.3064C57.6461 41.7275 58.4966 41.9985 59.4077 42.0782L67.7093 42.8045L68.7988 30.3521L72.9496 30.7153L73.3127 26.5644L66.3788 25.9578C65.766 23.5855 64.4695 21.4457 62.6505 19.8042C60.8315 18.1627 58.5702 17.092 56.1477 16.7251C53.7252 16.3583 51.2483 16.7114 49.0249 17.7407C46.8014 18.77 44.9295 20.4301 43.6418 22.5145C42.354 24.599 41.7073 27.0159 41.7819 29.4649C41.8565 31.9139 42.6492 34.287 44.0614 36.2891C45.4737 38.2913 47.4432 39.8343 49.7252 40.7264C52.0071 41.6184 54.501 41.8201 56.8966 41.3064V41.3064Z" fill="white"/>
<path fill-rule="evenodd" clip-rule="evenodd" d="M54.9969 20.7795C51.9253 20.5107 49.0959 21.9446 47.4425 24.3011L61.8251 25.5594C61.2071 24.2331 60.2506 23.093 59.0519 22.2539C57.8532 21.4148 56.4547 20.9062 54.9969 20.7795V20.7795ZM59.7706 37.9274C59.2201 37.8793 58.7114 37.6144 58.3562 37.1912C58.0011 36.7679 57.8286 36.2209 57.8767 35.6704L58.4215 29.4442L64.6477 29.989L63.9214 38.2906L59.7706 37.9274Z" fill="white"/>
<path d="M25.8379 43.3239C23.6362 43.1312 21.4481 43.8211 19.755 45.2418C18.062 46.6624 17.0026 48.6975 16.81 50.8992L15.7205 63.3516C15.5279 65.5533 16.2178 67.7414 17.6384 69.4345C19.0591 71.1275 21.0941 72.1869 23.2958 72.3795L23.4079 72.3893C23.5146 77.3132 25.5779 81.5299 28.932 84.6884C32.7134 88.2461 38.0563 90.4012 43.9671 90.9184C53.4143 91.7449 62.4805 88.7047 66.1688 80.2984C66.9373 80.4309 67.7276 80.3452 68.4499 80.051C69.1722 79.7568 69.7974 79.2659 70.2546 78.6341C70.7118 78.0023 70.9826 77.2549 71.0362 76.4769C71.0898 75.6989 70.9241 74.9214 70.5579 74.2328L78.794 70.6412L77.1287 66.8232L66.5706 71.4267L56.5261 66.6226L56.522 66.6222C56.1399 66.4386 55.823 66.1428 55.6135 65.7744C55.404 65.4059 55.3118 64.9823 55.3493 64.5601L55.8795 58.4999C55.9758 57.399 55.6309 56.305 54.9206 55.4585C54.2102 54.6119 53.1927 54.0823 52.0919 53.9859C50.991 53.8896 49.897 54.2346 49.0504 54.9449C48.2039 55.6552 47.6742 56.6727 47.5779 57.7736L46.67 68.1506C46.596 68.9958 46.7817 69.8434 47.2023 70.5801C47.6229 71.3169 48.2584 71.9077 49.0238 72.2736L62.3445 78.6421C59.6426 84.7361 52.8622 87.514 44.3302 86.7676C39.1687 86.316 34.7644 84.4521 31.7908 81.6531C29.2537 79.2667 27.704 76.1594 27.5798 72.4636C29.3793 72.1376 31.0216 71.229 32.2539 69.8777C33.4861 68.5265 34.2399 66.8076 34.3992 64.9858L35.4886 52.5334C35.6812 50.3316 34.9913 48.1436 33.5707 46.4505C32.1501 44.7574 30.115 43.6981 27.9133 43.5054L31.0264 43.7778C31.5768 43.8259 32.1239 43.6535 32.5471 43.2983C32.9704 42.9432 33.2352 42.4344 33.2834 41.884C33.3315 41.3335 33.1591 40.7865 32.8039 40.3632C32.4487 39.94 31.94 39.6751 31.3896 39.627L23.0879 38.9007C22.5375 38.8525 21.9905 39.025 21.5672 39.3802C21.1439 39.7353 20.8791 40.2441 20.8309 40.7945C20.7828 41.3449 20.9553 41.892 21.3104 42.3152C21.6656 42.7385 22.1743 43.0033 22.7248 43.0515L25.8379 43.3239ZM90.9313 60.5836L87.6039 58.0758L79.4272 68.9252L90.4351 69.8883L90.7983 65.7375L87.2784 65.4295L90.9313 60.5836Z" fill="white"/>
<path d="M42.4413 44.7765C41.3405 44.6801 40.2464 45.0251 39.3999 45.7354C38.5534 46.4457 38.0237 47.4633 37.9274 48.5641L36.2024 68.2805C36.0178 70.3911 36.422 72.5115 37.3701 74.4062C38.3182 76.3009 39.773 77.8957 41.5729 79.0132C43.3729 80.1308 45.4474 80.7275 47.566 80.737C49.6847 80.7464 51.7644 80.1683 53.5743 79.0668L47.2272 76.0313C45.6967 75.2996 44.4259 74.1184 43.5847 72.6453C42.7434 71.1722 42.3718 69.4774 42.5194 67.7875L43.4273 57.4105C43.6199 55.2087 44.6793 53.1737 46.3724 51.7531C48.0654 50.3324 50.2535 49.6425 52.4552 49.8351C54.6569 50.0278 56.692 51.0871 58.1126 52.7802C59.5333 54.4733 60.2232 56.6613 60.0305 58.8631L60.5753 52.6368C60.7197 50.9855 60.2023 49.3445 59.1368 48.0747C58.0713 46.8049 56.5451 46.0104 54.8938 45.8659L42.4413 44.7765Z" fill="white"/>
</svg>
