<svg width="67" height="62" viewBox="0 0 67 62" fill="none" xmlns="http://www.w3.org/2000/svg">
<path d="M63.7 3.3C63.7 3.3 62.3 3 60.2 3C54.7 3 44.6 5.1 46.2 20.8C47.3 20.9 48.4 21 49.4 21C67.3 21 63.7 3.3 63.7 3.3Z" fill="#EF9211"/>
<path d="M50 17C50 17 50 7 60 7C60 7 54 9 50 17Z" fill="white"/>
<path d="M6.875 18.875C6.875 18.875 6.25 21.7917 6.25 26.1667C6.25 37.625 10.625 58.6667 43.3333 55.3333C43.5417 53.0417 43.75 50.75 43.75 48.6667C43.75 11.375 6.875 18.875 6.875 18.875Z" fill="#EE920A"/>
<path d="M35.4166 47.4167C35.4166 47.4167 14.5833 47.4167 14.5833 26.5833C14.5833 26.5833 18.7499 39.0833 35.4166 47.4167Z" fill="white"/>
</svg>
