<svg width="99" height="278" viewBox="0 0 99 278" fill="none" xmlns="http://www.w3.org/2000/svg">
<path d="M17.4864 25.1367C22.1922 45.716 26.6501 64.8383 30.9141 84.0842C31.1621 85.5411 30.3529 87.3491 29.5808 91.3945C25.9783 83.3551 22.8006 77.306 20.398 70.7626C14.1791 53.4092 8.43613 36.0753 2.60481 18.4747C1.89798 16.3413 0.997398 14.3315 0.678122 11.951C-0.650182 4.39969 1.84883 -0.100784 7.54264 0.790981C10.2927 1.29864 12.9372 2.19653 15.4764 3.48464C25.0688 8.35084 34.5558 13.6073 44.0428 18.8637C45.7356 19.7224 47.1121 21.7518 49.5288 24.0871C39.8229 30.9216 32.604 19.0509 23.8811 21.0595C25.0638 23.2125 25.9644 25.2223 26.9704 26.8419C65.1653 89.7014 87.3821 162.425 97.109 242.79C98.2264 251.122 98.4804 259.681 98.9282 268.117C99.1963 272.468 98.1249 277.027 94.1239 276.994C90.2112 277.228 88.9743 273.495 88.9171 268.363C88.6039 210.744 73.5608 158.964 56.0156 108.133C46.9865 81.5887 36.1963 56.8136 23.1692 33.7878C21.5276 30.9583 19.6922 28.2524 17.4864 25.1367Z" fill="#0E1724"/>
</svg>
