<svg width="300" height="26" viewBox="0 0 300 26" fill="none" xmlns="http://www.w3.org/2000/svg">
<path d="M6.5089 10.4627C8.85773 10.4627 11.3184 10.3537 13.6672 10.2447C14.6739 10.2447 15.5687 10.1357 16.5753 10.1357C20.8255 9.91773 25.0758 9.69975 29.326 9.48178C34.4711 9.26381 39.5043 8.93685 44.6493 8.71888C51.9195 8.28294 59.1897 7.95598 66.4598 7.52003C68.1376 7.41105 69.8153 7.41105 71.493 7.30206C75.7433 7.08409 79.9935 6.86612 84.2438 6.75713C88.494 6.53916 92.7443 6.32119 96.9945 6.2122C98.6723 6.10322 100.35 5.99423 102.028 5.99423C108.739 5.77626 115.561 5.55829 122.272 5.34031C126.411 5.23133 130.549 5.12234 134.799 4.90437C136.477 4.90437 138.043 4.79538 139.721 4.79538C146.208 4.6864 152.807 4.57741 159.294 4.46843C165.781 4.35944 172.157 4.25045 178.644 4.14147C180.322 4.14147 182 4.14147 183.789 4.14147C188.039 4.14147 192.178 4.14147 196.428 4.14147C203.027 4.14147 209.514 4.14147 216.113 4.03248C218.239 4.03248 220.364 4.03248 222.489 4.03248C226.963 4.03248 231.437 4.03248 235.911 4.03248C236.246 4.03248 236.694 4.03248 237.029 4.03248C226.963 4.14147 216.785 4.25045 206.718 4.46843C202.468 4.57741 198.329 4.57741 194.079 4.6864C192.29 4.6864 190.388 4.6864 188.599 4.79538C182.447 4.90437 176.407 5.12234 170.255 5.23133C163.209 5.4493 156.163 5.55829 149.116 5.77626C147.886 5.77626 146.767 5.88524 145.537 5.88524C141.734 6.10322 138.043 6.2122 134.24 6.43017C126.634 6.75713 119.029 7.08409 111.423 7.41105C110.305 7.41105 109.186 7.52003 108.068 7.62902C104.377 7.84699 100.574 8.17395 96.8827 8.39192C90.1718 8.82787 83.5727 9.26381 76.8618 9.69975C75.0722 9.80874 73.1708 10.0267 71.3812 10.1357C67.1309 10.4627 62.8807 10.7896 58.6304 11.2256C53.2617 11.6615 47.7811 12.0974 42.4124 12.5334C34.9185 13.1873 27.3128 13.8412 19.8189 14.4951C18.0293 14.6041 16.2397 14.8221 14.3383 14.9311C11.0947 15.258 7.85109 15.585 4.60748 15.912C4.27193 15.912 3.93638 16.1299 3.93638 16.5659C3.93638 16.8928 4.27193 17.2198 4.60748 17.2198C5.83781 17.2198 6.9563 17.3288 8.18664 17.3288C7.96294 17.8737 7.85109 18.2007 7.85109 18.5276C7.85109 19.7265 8.85773 20.8163 10.1999 20.8163C19.4834 20.2714 28.655 19.6175 37.9384 19.1815C45.9915 18.8546 54.0446 18.4186 62.0977 18.0917C70.9338 17.6557 79.8817 17.2198 88.7177 16.8928C91.5139 16.7838 94.3102 16.6749 97.1064 16.4569C97.8893 16.4569 98.6723 16.3479 99.567 16.3479C113.884 16.0209 128.2 15.585 142.517 15.258C150.123 15.0401 157.84 14.8221 165.446 14.7131C168.242 14.6041 170.927 14.6041 173.723 14.4951C188.375 14.2772 203.027 14.0592 217.679 13.8412C223.943 13.7322 230.206 13.6232 236.47 13.5143C241.839 13.4053 247.207 13.4053 252.576 13.1873C257.05 13.0783 261.412 12.8603 265.886 12.7514C268.123 12.6424 270.36 12.6424 272.485 12.5334C277.518 12.2064 282.552 11.8795 287.585 11.5525C287.249 11.9885 287.249 12.6424 287.361 13.0783C287.473 13.6232 287.808 14.0592 288.368 14.2772C288.815 14.4951 289.486 14.7131 289.934 14.4951C291.052 14.0592 292.171 13.6232 293.177 13.1873C293.177 13.1873 293.177 13.1873 293.065 13.1873C293.177 13.1873 293.177 13.0783 293.289 13.0783C293.401 13.0783 293.513 12.9693 293.513 12.9693H293.401C293.96 12.7514 294.519 12.5334 295.19 12.2064C295.75 11.9885 296.421 11.6615 296.98 11.4435C297.651 11.1166 298.21 10.7896 298.882 10.4627C299.553 10.1357 300 9.26381 300 8.50091C300 8.06496 299.888 7.73801 299.664 7.30206C299.441 6.86612 298.882 6.32119 298.322 6.2122C297.763 6.10322 297.204 5.99423 296.645 5.99423C296.533 5.99423 296.421 5.99423 296.309 5.99423C295.973 5.99423 295.526 5.99423 295.19 6.10322C294.296 6.2122 293.513 6.32119 292.618 6.32119C291.947 6.32119 291.276 6.43017 290.493 6.43017C288.591 6.53916 286.802 6.64815 284.9 6.86612C284.453 6.86612 283.894 6.9751 283.446 6.9751C283.67 6.75713 283.782 6.53916 283.782 6.32119C283.894 6.10322 283.894 5.88524 283.894 5.66727C283.894 5.55829 283.894 5.34031 284.006 5.23133C284.006 5.01336 284.006 4.79538 283.894 4.6864C283.894 4.6864 284.006 4.6864 284.006 4.57741C284.341 4.35944 284.677 4.14147 284.9 3.70552C285.124 3.37857 285.236 2.94262 285.236 2.50668C285.236 2.07073 285.124 1.74378 284.9 1.30783C284.789 1.19885 284.677 0.980874 284.565 0.871888C284.229 0.54493 283.894 0.435944 283.558 0.326958C282.887 0.108986 282.104 0 281.321 0C280.65 0 280.091 0 279.42 0C278.525 0 277.63 0 276.735 0C275.505 0 274.163 0 272.933 0C269.577 0 266.222 0 262.866 0C259.734 0 256.491 0 253.359 0C250.451 0 247.655 0 244.747 0C233.226 0 221.818 0.108986 210.297 0.217972C201.685 0.326958 193.073 0.435944 184.46 0.435944C180.657 0.435944 176.743 0.54493 172.94 0.653916C164.327 0.871888 155.715 0.980874 147.103 1.19885C144.642 1.19885 142.181 1.30783 139.721 1.30783C138.267 1.30783 136.925 1.41682 135.47 1.41682C126.97 1.74378 118.469 2.07073 109.969 2.39769C107.396 2.50668 104.824 2.61566 102.14 2.72465C100.686 2.72465 99.2315 2.83364 97.7775 2.94262C89.277 3.37857 80.8883 3.81451 72.3878 4.25045C68.0257 4.46843 63.6636 4.6864 59.3015 5.01336C51.8076 5.4493 44.3138 5.88524 36.9318 6.43017C30.4445 6.86612 23.9573 7.19308 17.4701 7.52003C16.4634 7.62902 15.4568 7.62902 14.3383 7.73801C12.6606 7.84699 10.9829 7.84699 9.30512 7.95598C7.85109 8.39192 6.28521 8.39192 4.83117 8.39192C4.71933 7.95598 4.27193 7.62902 3.93638 7.73801C2.92975 7.73801 2.03496 7.84699 1.02832 7.95598C0.580922 8.06496 0.133527 8.28294 0.0216779 8.71888C-0.0901708 9.26381 0.245375 9.80874 0.69277 9.91772C1.14017 10.0267 1.58756 10.1357 2.03496 10.2447C2.48235 10.3537 2.8179 10.3537 3.26529 10.3537C4.38378 10.4627 5.39042 10.4627 6.5089 10.4627ZM268.235 6.9751C269.577 6.9751 271.031 6.9751 272.373 6.9751C272.485 7.30206 272.709 7.52003 272.933 7.73801C272.373 7.73801 271.814 7.84699 271.367 7.84699C270.36 7.84699 269.353 7.95598 268.347 7.95598C263.873 8.06496 259.511 8.28294 255.037 8.39192C253.024 8.50091 251.01 8.60989 248.997 8.60989C245.865 8.60989 242.622 8.71888 239.49 8.71888C232.22 8.82787 225.061 8.93685 217.791 9.04584C203.698 9.26381 189.717 9.48178 175.624 9.69975C165.558 9.80874 155.491 10.1357 145.425 10.4627C130.325 10.8986 115.114 11.2256 100.014 11.6615C96.9945 11.7705 93.9746 11.8795 90.9547 12.0974C82.3423 12.5334 73.73 12.8603 65.1176 13.2963C56.729 13.7322 48.2285 14.0592 39.8398 14.4951C39.0569 14.4951 38.2739 14.6041 37.491 14.6041C39.728 14.3862 42.0768 14.2772 44.3138 14.0592C52.255 13.5143 60.1963 12.8603 68.1376 12.3154C70.9338 12.0974 73.73 11.8795 76.4144 11.6615C77.8684 11.5525 79.3224 11.4435 80.6646 11.4435C89.0533 11.0076 97.3301 10.4627 105.607 10.0267C107.173 9.91773 108.85 9.80874 110.416 9.69975C112.765 9.59077 115.114 9.48178 117.351 9.48178C125.852 9.15482 134.352 8.82787 142.853 8.50091C144.754 8.39192 146.655 8.39192 148.445 8.28294C148.892 8.28294 149.452 8.28294 149.899 8.28294C151.241 8.28294 152.583 8.28294 153.814 8.17395C162.314 7.95598 170.927 7.84699 179.427 7.62902C183.342 7.52003 187.256 7.41105 191.171 7.41105C203.81 7.30206 216.561 7.19308 229.2 7.08409C242.398 7.08409 255.372 6.9751 268.235 6.9751Z" fill="white" fill-opacity="0.8"/>
<path d="M23.2653 25.7143C23.6035 25.7143 23.8776 25.4402 23.8776 25.1021C23.8776 24.7639 23.6035 24.4898 23.2653 24.4898C22.9272 24.4898 22.6531 24.7639 22.6531 25.1021C22.6531 25.4402 22.9272 25.7143 23.2653 25.7143Z" fill="white" fill-opacity="0.8"/>
</svg>
