<svg width="42" height="42" viewBox="0 0 42 42" fill="none" xmlns="http://www.w3.org/2000/svg">
<path d="M3.17183 5.60689L3.17184 5.60694C2.98377 5.6644 2.81193 5.81097 2.68932 5.97558C2.56671 6.1402 2.47505 6.34742 2.47505 6.54609C2.47505 6.74133 2.54674 6.93988 2.65583 7.10467C2.7649 7.26944 2.91974 7.41312 3.10056 7.48846L3.10254 7.48928L3.10254 7.48927C3.22812 7.5395 3.41007 7.5692 3.66731 7.58779C3.92819 7.60665 4.28119 7.61484 4.75786 7.61484C5.36567 7.61484 5.68293 7.61714 5.84993 7.63548C5.87973 7.63875 5.90126 7.64227 5.9165 7.64536C5.9138 7.66864 5.9099 7.70033 5.90482 7.74027C5.89392 7.8259 5.8778 7.94764 5.85699 8.10164C5.81537 8.40956 5.75517 8.84535 5.68084 9.37693C5.53219 10.44 5.32714 11.8856 5.10157 13.4564L5.10154 13.4566L4.29684 19.1221L3.7946 19.5939C3.79449 19.594 3.79438 19.5941 3.79426 19.5942C2.776 20.5374 1.86103 21.9187 1.36919 23.219L3.17183 5.60689ZM3.17183 5.60689L3.17569 5.60582M3.17183 5.60689L3.17569 5.60582M3.17569 5.60582C3.20176 5.5986 3.23603 5.59446 3.26688 5.59141C3.30143 5.58799 3.34491 5.58481 3.39602 5.58181C3.49842 5.5758 3.63601 5.57025 3.80322 5.56513C4.13787 5.55489 4.595 5.54625 5.13454 5.53926C6.21384 5.52528 7.62545 5.51785 9.05214 5.51733C10.4789 5.51682 11.9212 5.52323 13.062 5.53695C14.1953 5.55059 15.0454 5.57144 15.2768 5.60159L3.17569 5.60582ZM31.65 17.8148V15.1102C31.65 14.0517 31.6419 13.3111 31.6233 12.7966C31.6049 12.2878 31.5763 11.9858 31.5301 11.8147L31.65 17.8148ZM31.65 17.8148H33.1243C34.0216 17.8148 34.5969 17.833 35.0482 17.906C35.5065 17.98 35.8341 18.11 36.238 18.3246L36.2384 18.3248C37.2064 18.8427 37.9515 19.6911 38.3822 20.7636L38.3823 20.7638C38.4282 20.8786 38.4664 20.9792 38.4959 21.1157C38.525 21.2503 38.5448 21.4153 38.5599 21.6614C38.5899 22.1521 38.6022 22.9895 38.6227 24.5993L38.6227 24.5993L38.6627 27.8368L39.0242 28.0482C39.0242 28.0482 39.0242 28.0482 39.0242 28.0483C39.5787 28.3724 40.2188 28.9962 40.5672 29.5315L40.5679 29.5326C41.0025 30.2143 41.1891 30.8477 41.2311 31.7804C41.2476 32.1455 41.2503 32.3804 41.2229 32.5984C41.1954 32.8179 41.138 33.0143 41.0433 33.3023L41.0429 33.3036C40.5015 34.9024 39.2628 36.0242 37.6423 36.3636C37.3295 36.4294 36.9227 36.4898 36.75 36.4898C36.5773 36.4898 36.1783 36.4293 35.8586 36.3637L35.8576 36.3635C33.9419 35.9567 32.4906 34.3798 32.2698 32.4605L32.2278 32.1009L25.4704 32.0848L25.4702 32.0848L18.6579 32.0604L18.3748 32.4639L18.3745 32.4643C17.9297 33.0938 17.0077 34.0236 16.307 34.5408C15.2215 35.3506 13.7988 35.9738 12.3615 36.2895L12.3615 36.2895L12.3602 36.2898C11.9556 36.3749 11.2708 36.4221 10.5962 36.4304C9.92178 36.4386 9.23663 36.4081 8.8315 36.3314L8.8315 36.3314L8.83071 36.3312C4.77767 35.5406 1.74427 32.5752 0.919616 28.5693C0.760403 27.8151 0.744085 27.5065 0.777063 26.3687L0.777099 26.3677C0.826786 24.9765 0.935762 24.361 1.36912 23.2192L31.65 17.8148ZM29.6274 17.9648H25.3149C21.1313 17.9648 20.8442 17.9566 20.8032 17.8172C20.7786 17.7434 20.311 15.7008 19.7696 13.2891L29.6274 17.9648ZM18.7541 8.40681C18.7802 8.47835 18.8314 8.66924 18.8999 8.94031C18.9698 9.2173 19.0602 9.58817 19.1649 10.0263C19.3742 10.9026 19.6409 12.0495 19.9158 13.2557L19.9159 13.2562C20.1866 14.4619 20.4388 15.5753 20.6264 16.3964C20.7202 16.807 20.7978 17.1444 20.8535 17.3837C20.8814 17.5033 20.9037 17.5982 20.9198 17.6654C20.9278 17.699 20.9342 17.7254 20.939 17.7442C20.9391 17.7446 20.9392 17.745 20.9392 17.7454C20.9463 17.7474 20.9555 17.7497 20.9676 17.7522C21.0512 17.7696 21.2093 17.7836 21.5104 17.7934C22.1072 17.8128 23.2216 17.8148 25.3149 17.8148H29.6274V15.3891C29.6274 14.6846 29.6192 13.9948 29.6049 13.453C29.5977 13.182 29.5891 12.9487 29.5792 12.7695C29.569 12.5852 29.5581 12.4701 29.5487 12.4263L29.5487 12.4264L29.548 12.4232C29.4749 12.042 29.3256 11.7575 29.0965 11.5466C28.866 11.3344 28.5423 11.1855 28.1011 11.0986C27.6296 11.0158 27.4028 10.9269 27.2273 10.7208C27.0294 10.4928 26.9677 10.1852 27.0147 9.90409C27.0618 9.62298 27.2205 9.35106 27.4863 9.19776C27.809 9.00285 28.155 9.00698 28.7576 9.1308L28.7588 9.13106C30.0792 9.414 31.1714 10.4744 31.53 11.8144L18.7541 8.40681ZM15.6471 7.79834L15.6471 7.79838L15.6441 7.79695L15.2647 7.61484H11.5993H8.01984L7.99864 7.7505L7.99868 7.75051L7.99804 7.75405C7.92082 8.18082 7.55842 10.7213 7.21765 13.1642C7.04746 14.3843 6.88291 15.5781 6.76246 16.4684C6.70224 16.9136 6.65307 17.2826 6.61974 17.541C6.6102 17.615 6.60197 17.6797 6.59517 17.7345C6.64459 17.7166 6.69998 17.6951 6.75739 17.6713C7.41511 17.3766 8.54494 17.0952 9.42359 16.9874L9.4251 16.9873C10.9089 16.8205 12.3921 16.9959 13.9058 17.5447C13.9059 17.5448 13.9061 17.5449 13.9063 17.5449L14.6684 17.8148H16.8411C17.8737 17.8148 18.4165 17.8127 18.6971 17.7937C18.7571 17.7896 18.8023 17.7849 18.8362 17.7798C18.8234 17.7238 18.8034 17.6363 18.7771 17.5209C18.6258 16.8584 18.2648 15.2781 17.8596 13.4862C17.5973 12.3262 17.337 11.2239 17.1302 10.3841C17.0267 9.96417 16.9368 9.61045 16.8666 9.34828C16.795 9.08065 16.7478 8.92303 16.7289 8.88005C16.5056 8.39543 16.1378 8.02069 15.6471 7.79834ZM17.8143 29.0984L17.8145 29.098C19.2709 24.7528 16.5169 19.9899 12.0635 19.1458L12.0915 18.9984L12.0636 19.1458C11.2074 18.9843 10.5159 18.9523 9.71823 19.0247C6.51833 19.3222 3.78928 21.6954 3.00035 24.8587C2.88941 25.3105 2.82624 25.9785 2.8181 26.6435C2.80996 27.3097 2.85727 27.9549 2.95924 28.3628L2.95929 28.363C3.32206 29.8222 4.06337 31.1427 5.08474 32.1562C6.05164 33.1069 7.06425 33.7098 8.38707 34.1212C8.71626 34.2228 8.91217 34.2747 9.18746 34.3029C9.46845 34.3317 9.83332 34.3359 10.5 34.3359C11.1668 34.3359 11.5317 34.3317 11.8126 34.3029C12.088 34.2747 12.2839 34.2228 12.6132 34.1211C15.1195 33.3475 17.0098 31.5202 17.8143 29.0984ZM35.1708 20.0827L35.1705 20.0826L34.7849 19.8784L25.9709 19.8539H25.9707L17.4682 19.8381L17.6572 20.0456C17.6573 20.0457 17.6573 20.0458 17.6574 20.0459C19.3641 21.9108 20.2477 24.1781 20.2477 26.7012C20.2477 27.8133 20.0574 29.0297 19.7542 29.8382L19.7536 29.8398L19.6769 30.0375H26.086H32.6229L32.8816 29.625C32.8818 29.6247 32.8819 29.6245 32.882 29.6243C33.5856 28.4804 34.7799 27.6839 36.0946 27.48C36.0949 27.48 36.0952 27.4799 36.0955 27.4799L36.6072 27.3946L36.5836 24.5696L36.5593 21.6537L36.2983 21.17C36.2982 21.1699 36.2982 21.1698 36.2981 21.1697C36.1462 20.8898 36.0133 20.6994 35.8481 20.5398C35.6823 20.3797 35.4769 20.2438 35.1708 20.0827ZM37.6323 29.6498L37.6315 29.6496C37.1084 29.4831 36.6469 29.4466 36.2286 29.5326C35.811 29.6184 35.425 29.8286 35.0561 30.174L35.0556 30.1744C34.7845 30.4259 34.6021 30.6733 34.486 30.9517C34.3697 31.2308 34.3161 31.5502 34.3161 31.9512C34.3161 32.2239 34.3265 32.3937 34.357 32.5411C34.3872 32.6864 34.4385 32.8171 34.5308 33.0098C34.7616 33.4866 35.1719 33.8991 35.688 34.1728C35.8259 34.2456 35.9295 34.286 36.0736 34.3103C36.224 34.3357 36.4217 34.3441 36.75 34.3441C37.0784 34.3441 37.2761 34.3357 37.4265 34.3103C37.5706 34.286 37.6742 34.2456 37.8121 34.1728C38.3282 33.899 38.7386 33.4865 38.9693 33.0097L38.9698 33.0086C39.2611 32.4184 39.2698 31.5299 39 30.9209L38.9999 30.9207C38.8877 30.6663 38.6689 30.3851 38.4099 30.1459C38.1502 29.906 37.8657 29.7227 37.6323 29.6498Z" fill="#DEECA3" stroke="#DEECA3" stroke-width="0.3"/>
<path d="M31.0455 21.4082L31.0455 21.4082L31.0486 21.4067C31.1102 21.3766 31.1908 21.3546 31.2762 21.3375C31.364 21.3199 31.4668 21.3055 31.5784 21.2939C31.8018 21.2709 32.0678 21.2587 32.3338 21.2571C32.5998 21.2556 32.8687 21.2646 33.0979 21.2847C33.3208 21.3043 33.5247 21.3356 33.6485 21.3862L33.6485 21.3862L33.6509 21.3872C33.8267 21.4625 33.9807 21.6055 34.0902 21.7669C34.1995 21.928 34.275 22.123 34.275 22.3126C34.275 22.5021 34.1995 22.6971 34.0902 22.8582C33.9807 23.0196 33.8267 23.1626 33.6509 23.2379L33.6509 23.238L33.6475 23.2393C33.5224 23.2894 33.3199 23.3207 33.0982 23.3403C32.8708 23.3605 32.605 23.3695 32.342 23.368C32.079 23.3664 31.8161 23.3542 31.5945 23.3311C31.3815 23.309 31.1845 23.2749 31.0677 23.2197C30.906 23.1462 30.7541 22.9906 30.6453 22.8323C30.5375 22.6755 30.4477 22.4807 30.4477 22.3126C30.4477 22.148 30.538 21.9551 30.6424 21.8001C30.7487 21.6424 30.895 21.4861 31.0455 21.4082Z" fill="#DEECA3" stroke="#DEECA3" stroke-width="0.3"/>
<path d="M30.9619 24.9657L30.962 24.9656C31.0908 24.8863 31.2175 24.8417 31.435 24.8172C31.6448 24.7935 31.9487 24.7875 32.4352 24.7875H33.5672H33.6293L33.6733 24.8314L33.9522 25.1103C34.1233 25.2815 34.234 25.4668 34.267 25.6749C34.3 25.8828 34.2522 26.0932 34.1443 26.3089L34.1444 26.3089L34.1424 26.3125C34.0895 26.4115 34.0266 26.5005 33.9354 26.5732C33.8443 26.6459 33.7345 26.6949 33.5983 26.7288C33.3342 26.7946 32.9396 26.8102 32.3203 26.8102C31.7809 26.8102 31.4795 26.8085 31.2862 26.7798C31.185 26.7648 31.1051 26.7414 31.0318 26.7033C30.9608 26.6663 30.9031 26.6191 30.8453 26.5696C30.3243 26.1345 30.383 25.3227 30.9619 24.9657Z" fill="#DEECA3" stroke="#DEECA3" stroke-width="0.3"/>
</svg>
