<svg width="49" height="48" viewBox="0 0 49 48" fill="none" xmlns="http://www.w3.org/2000/svg">
<rect x="0.115234" width="48" height="48" rx="24" fill="#D1DBE1"/>
<path d="M31.1152 15H17.1152C16.0107 15 15.1152 15.8954 15.1152 17V31C15.1152 32.1046 16.0107 33 17.1152 33H31.1152C32.2198 33 33.1152 32.1046 33.1152 31V17C33.1152 15.8954 32.2198 15 31.1152 15Z" fill="#296059" stroke="#296059" stroke-width="2" stroke-linecap="round" stroke-linejoin="round"/>
<g clip-path="url(#clip0_20_136)">
<path d="M24.1152 15.75V32.25" stroke="#FEFEFE" stroke-width="2" stroke-linecap="round" stroke-linejoin="round"/>
<path d="M27.8652 18.75H22.2402C21.544 18.75 20.8764 19.0266 20.3841 19.5188C19.8918 20.0111 19.6152 20.6788 19.6152 21.375C19.6152 22.0712 19.8918 22.7389 20.3841 23.2312C20.8764 23.7234 21.544 24 22.2402 24H25.9902C26.6864 24 27.3541 24.2766 27.8464 24.7688C28.3387 25.2611 28.6152 25.9288 28.6152 26.625C28.6152 27.3212 28.3387 27.9889 27.8464 28.4812C27.3541 28.9734 26.6864 29.25 25.9902 29.25H19.6152" stroke="#FEFEFE" stroke-width="2" stroke-linecap="round" stroke-linejoin="round"/>
</g>
<defs>
<clipPath id="clip0_20_136">
<rect width="18" height="18" fill="white" transform="translate(15.1152 15)"/>
</clipPath>
</defs>
</svg>
