<svg width="42" height="42" viewBox="0 0 42 42" fill="none" xmlns="http://www.w3.org/2000/svg">
<path d="M3.17177 5.60689L3.17178 5.60694C2.98371 5.6644 2.81187 5.81097 2.68926 5.97558C2.56665 6.1402 2.47499 6.34742 2.47499 6.54609C2.47499 6.74133 2.54668 6.93988 2.65577 7.10467C2.76484 7.26944 2.91968 7.41312 3.1005 7.48846L3.10248 7.48928L3.10248 7.48927C3.22805 7.5395 3.41001 7.5692 3.66725 7.58779C3.92813 7.60665 4.28113 7.61484 4.7578 7.61484C5.36561 7.61484 5.68287 7.61714 5.84987 7.63548C5.87967 7.63875 5.9012 7.64227 5.91644 7.64536C5.91374 7.66864 5.90984 7.70033 5.90476 7.74027C5.89386 7.8259 5.87774 7.94764 5.85692 8.10164C5.81531 8.40956 5.75511 8.84535 5.68078 9.37693C5.53213 10.44 5.32708 11.8856 5.10151 13.4564L5.10148 13.4566L4.29678 19.1221L3.79454 19.5939C3.79443 19.594 3.79432 19.5941 3.7942 19.5942C2.77594 20.5374 1.86097 21.9187 1.36913 23.219L3.17177 5.60689ZM3.17177 5.60689L3.17563 5.60582M3.17177 5.60689L3.17563 5.60582M3.17563 5.60582C3.2017 5.5986 3.23597 5.59446 3.26682 5.59141C3.30137 5.58799 3.34485 5.58481 3.39596 5.58181C3.49836 5.5758 3.63595 5.57025 3.80315 5.56513C4.13781 5.55489 4.59494 5.54625 5.13448 5.53926C6.21378 5.52528 7.62538 5.51785 9.05208 5.51733C10.4788 5.51682 11.9211 5.52323 13.0619 5.53695C14.1952 5.55059 15.0453 5.57144 15.2768 5.60159L3.17563 5.60582ZM31.65 17.8148V15.1102C31.65 14.0517 31.6418 13.3111 31.6232 12.7966C31.6049 12.2878 31.5762 11.9858 31.53 11.8147L31.65 17.8148ZM31.65 17.8148H33.1242C34.0215 17.8148 34.5969 17.833 35.0482 17.906C35.5065 17.98 35.834 18.11 36.2379 18.3246L36.2383 18.3248C37.2063 18.8427 37.9514 19.6911 38.3821 20.7636L38.3822 20.7638C38.4281 20.8786 38.4663 20.9792 38.4958 21.1157C38.5249 21.2503 38.5448 21.4153 38.5598 21.6614C38.5898 22.1521 38.6022 22.9895 38.6226 24.5993L38.6226 24.5993L38.6626 27.8368L39.0241 28.0482C39.0241 28.0482 39.0241 28.0482 39.0242 28.0483C39.5786 28.3724 40.2188 28.9962 40.5671 29.5315L40.5679 29.5326C41.0024 30.2143 41.1891 30.8477 41.2311 31.7804C41.2475 32.1455 41.2503 32.3804 41.2229 32.5984C41.1953 32.8179 41.1379 33.0143 41.0433 33.3023L41.0428 33.3036C40.5014 34.9024 39.2627 36.0242 37.6422 36.3636C37.3295 36.4294 36.9226 36.4898 36.75 36.4898C36.5772 36.4898 36.1782 36.4293 35.8585 36.3637L35.8575 36.3635C33.9419 35.9567 32.4905 34.3798 32.2697 32.4605L32.2278 32.1009L25.4703 32.0848L25.4702 32.0848L18.6579 32.0604L18.3747 32.4639L18.3744 32.4643C17.9296 33.0938 17.0076 34.0236 16.3069 34.5408C15.2215 35.3506 13.7987 35.9738 12.3615 36.2895L12.3615 36.2895L12.3602 36.2898C11.9555 36.3749 11.2707 36.4221 10.5962 36.4304C9.92172 36.4386 9.23657 36.4081 8.83144 36.3314L8.83144 36.3314L8.83064 36.3312C4.77761 35.5406 1.74421 32.5752 0.919555 28.5693C0.760342 27.8151 0.744024 27.5065 0.777002 26.3687L0.777038 26.3677C0.826725 24.9765 0.935701 24.361 1.36906 23.2192L31.65 17.8148ZM29.6273 17.9648H25.3148C21.1312 17.9648 20.8441 17.9566 20.8031 17.8172C20.7785 17.7434 20.3109 15.7008 19.7695 13.2891L29.6273 17.9648ZM18.7541 8.40681C18.7801 8.47835 18.8314 8.66924 18.8998 8.94031C18.9698 9.2173 19.0602 9.58817 19.1648 10.0263C19.3742 10.9026 19.6409 12.0495 19.9158 13.2557L19.9159 13.2562C20.1865 14.4619 20.4387 15.5753 20.6263 16.3964C20.7201 16.807 20.7978 17.1444 20.8535 17.3837C20.8813 17.5033 20.9036 17.5982 20.9197 17.6654C20.9278 17.699 20.9342 17.7254 20.9389 17.7442C20.939 17.7446 20.9391 17.745 20.9392 17.7454C20.9462 17.7474 20.9555 17.7497 20.9676 17.7522C21.0511 17.7696 21.2092 17.7836 21.5104 17.7934C22.1071 17.8128 23.2216 17.8148 25.3148 17.8148H29.6273V15.3891C29.6273 14.6846 29.6191 13.9948 29.6048 13.453C29.5977 13.182 29.589 12.9487 29.5791 12.7695C29.5689 12.5852 29.558 12.4701 29.5486 12.4263L29.5486 12.4264L29.548 12.4232C29.4748 12.042 29.3256 11.7575 29.0964 11.5466C28.8659 11.3344 28.5423 11.1855 28.101 11.0986C27.6295 11.0158 27.4027 10.9269 27.2272 10.7208C27.0294 10.4928 26.9676 10.1852 27.0146 9.90409C27.0617 9.62298 27.2204 9.35106 27.4862 9.19776C27.8089 9.00285 28.1549 9.00698 28.7575 9.1308L28.7588 9.13106C30.0792 9.414 31.1713 10.4744 31.5299 11.8144L18.7541 8.40681ZM15.6471 7.79834L15.647 7.79838L15.6441 7.79695L15.2647 7.61484H11.5992H8.01978L7.99858 7.7505L7.99862 7.75051L7.99798 7.75405C7.92076 8.18082 7.55836 10.7213 7.21759 13.1642C7.0474 14.3843 6.88285 15.5781 6.7624 16.4684C6.70217 16.9136 6.653 17.2826 6.61968 17.541C6.61014 17.615 6.60191 17.6797 6.59511 17.7345C6.64453 17.7166 6.69992 17.6951 6.75733 17.6713C7.41505 17.3766 8.54488 17.0952 9.42352 16.9874L9.42504 16.9873C10.9088 16.8205 12.392 16.9959 13.9057 17.5447C13.9059 17.5448 13.906 17.5449 13.9062 17.5449L14.6683 17.8148H16.841C17.8736 17.8148 18.4164 17.8127 18.6971 17.7937C18.757 17.7896 18.8023 17.7849 18.8361 17.7798C18.8233 17.7238 18.8034 17.6363 18.777 17.5209C18.6257 16.8584 18.2648 15.2781 17.8595 13.4862C17.5972 12.3262 17.337 11.2239 17.1301 10.3841C17.0267 9.96417 16.9367 9.61045 16.8666 9.34828C16.795 9.08065 16.7477 8.92303 16.7289 8.88005C16.5055 8.39543 16.1378 8.02069 15.6471 7.79834ZM17.8143 29.0984L17.8144 29.098C19.2709 24.7528 16.5169 19.9899 12.0635 19.1458L12.0914 18.9984L12.0636 19.1458C11.2073 18.9843 10.5158 18.9523 9.71817 19.0247C6.51827 19.3222 3.78922 21.6954 3.00029 24.8587C2.88935 25.3105 2.82618 25.9785 2.81804 26.6435C2.80989 27.3097 2.85721 27.9549 2.95918 28.3628L2.95923 28.363C3.322 29.8222 4.06331 31.1427 5.08468 32.1562C6.05158 33.1069 7.06419 33.7098 8.38701 34.1212C8.7162 34.2228 8.91211 34.2747 9.1874 34.3029C9.46839 34.3317 9.83326 34.3359 10.5 34.3359C11.1667 34.3359 11.5316 34.3317 11.8126 34.3029C12.0879 34.2747 12.2839 34.2228 12.6132 34.1211C15.1195 33.3475 17.0097 31.5202 17.8143 29.0984ZM35.1707 20.0827L35.1704 20.0826L34.7848 19.8784L25.9708 19.8539H25.9707L17.4682 19.8381L17.6571 20.0456C17.6572 20.0457 17.6573 20.0458 17.6574 20.0459C19.3641 21.9108 20.2476 24.1781 20.2476 26.7012C20.2476 27.8133 20.0573 29.0297 19.7541 29.8382L19.7535 29.8398L19.6768 30.0375H26.0859H32.6229L32.8816 29.625C32.8817 29.6247 32.8818 29.6245 32.882 29.6243C33.5856 28.4804 34.7798 27.6839 36.0946 27.48C36.0949 27.48 36.0951 27.4799 36.0954 27.4799L36.6071 27.3946L36.5836 24.5696L36.5593 21.6537L36.2982 21.17C36.2982 21.1699 36.2981 21.1698 36.2981 21.1697C36.1461 20.8898 36.0132 20.6994 35.848 20.5398C35.6822 20.3797 35.4769 20.2438 35.1707 20.0827ZM37.6322 29.6498L37.6315 29.6496C37.1084 29.4831 36.6469 29.4466 36.2285 29.5326C35.8109 29.6184 35.4249 29.8286 35.056 30.174L35.0555 30.1744C34.7844 30.4259 34.602 30.6733 34.4859 30.9517C34.3696 31.2308 34.316 31.5502 34.316 31.9512C34.316 32.2239 34.3264 32.3937 34.357 32.5411C34.3871 32.6864 34.4385 32.8171 34.5308 33.0098C34.7615 33.4866 35.1719 33.8991 35.688 34.1728C35.8258 34.2456 35.9294 34.286 36.0736 34.3103C36.2239 34.3357 36.4217 34.3441 36.75 34.3441C37.0783 34.3441 37.2761 34.3357 37.4264 34.3103C37.5705 34.286 37.6741 34.2456 37.812 34.1728C38.3282 33.899 38.7385 33.4865 38.9693 33.0097L38.9698 33.0086C39.2611 32.4184 39.2697 31.5299 39 30.9209L38.9999 30.9207C38.8876 30.6663 38.6688 30.3851 38.4098 30.1459C38.1501 29.906 37.8656 29.7227 37.6322 29.6498Z" fill="#007B6D" stroke="#007B6D" stroke-width="0.3"/>
<path d="M31.0455 21.4082L31.0455 21.4082L31.0486 21.4067C31.1102 21.3766 31.1908 21.3546 31.2762 21.3375C31.364 21.3199 31.4668 21.3055 31.5784 21.2939C31.8018 21.2709 32.0678 21.2587 32.3338 21.2571C32.5998 21.2556 32.8687 21.2646 33.0979 21.2847C33.3208 21.3043 33.5247 21.3356 33.6485 21.3862L33.6485 21.3862L33.6509 21.3872C33.8267 21.4625 33.9807 21.6055 34.0902 21.7669C34.1995 21.928 34.275 22.123 34.275 22.3126C34.275 22.5021 34.1995 22.6971 34.0902 22.8582C33.9807 23.0196 33.8267 23.1626 33.6509 23.2379L33.6509 23.238L33.6475 23.2393C33.5224 23.2894 33.3199 23.3207 33.0982 23.3403C32.8708 23.3605 32.605 23.3695 32.342 23.368C32.079 23.3664 31.8161 23.3542 31.5945 23.3311C31.3815 23.309 31.1845 23.2749 31.0677 23.2197C30.906 23.1462 30.7541 22.9906 30.6453 22.8323C30.5375 22.6755 30.4477 22.4807 30.4477 22.3126C30.4477 22.148 30.538 21.9551 30.6424 21.8001C30.7487 21.6424 30.895 21.4861 31.0455 21.4082Z" fill="#007B6D" stroke="#007B6D" stroke-width="0.3"/>
<path d="M30.9619 24.9657L30.962 24.9656C31.0908 24.8863 31.2175 24.8417 31.435 24.8172C31.6448 24.7935 31.9487 24.7875 32.4352 24.7875H33.5672H33.6293L33.6733 24.8314L33.9522 25.1103C34.1233 25.2815 34.234 25.4668 34.267 25.6749C34.3 25.8828 34.2522 26.0932 34.1443 26.3089L34.1444 26.3089L34.1424 26.3125C34.0895 26.4115 34.0266 26.5005 33.9354 26.5732C33.8443 26.6459 33.7345 26.6949 33.5983 26.7288C33.3342 26.7946 32.9396 26.8102 32.3203 26.8102C31.7809 26.8102 31.4795 26.8085 31.2862 26.7798C31.185 26.7648 31.1051 26.7414 31.0318 26.7033C30.9608 26.6663 30.9031 26.6191 30.8453 26.5696C30.3243 26.1345 30.383 25.3227 30.9619 24.9657Z" fill="#007B6D" stroke="#007B6D" stroke-width="0.3"/>
</svg>
